<svg id="visual" viewBox="0 0 1920 1080" width="1920" height="1080" xmlns="http://www.w3.org/2000/svg" xmlns:xlink="http://www.w3.org/1999/xlink" version="1.1"><rect x="0" y="0" width="1920" height="1080" fill="#FFFFFF"></rect><defs><linearGradient id="grad1_0" x1="43.8%" y1="0%" x2="100%" y2="100%"><stop offset="14.444444444444446%" stop-color="#4facf7" stop-opacity="1"></stop><stop offset="85.55555555555554%" stop-color="#4facf7" stop-opacity="1"></stop></linearGradient></defs><defs><linearGradient id="grad1_1" x1="43.8%" y1="0%" x2="100%" y2="100%"><stop offset="14.444444444444446%" stop-color="#4facf7" stop-opacity="1"></stop><stop offset="85.55555555555554%" stop-color="#b4d4fc" stop-opacity="1"></stop></linearGradient></defs><defs><linearGradient id="grad1_2" x1="43.8%" y1="0%" x2="100%" y2="100%"><stop offset="14.444444444444446%" stop-color="#ffffff" stop-opacity="1"></stop><stop offset="85.55555555555554%" stop-color="#b4d4fc" stop-opacity="1"></stop></linearGradient></defs><defs><linearGradient id="grad2_0" x1="0%" y1="0%" x2="56.3%" y2="100%"><stop offset="14.444444444444446%" stop-color="#4facf7" stop-opacity="1"></stop><stop offset="85.55555555555554%" stop-color="#4facf7" stop-opacity="1"></stop></linearGradient></defs><defs><linearGradient id="grad2_1" x1="0%" y1="0%" x2="56.3%" y2="100%"><stop offset="14.444444444444446%" stop-color="#b4d4fc" stop-opacity="1"></stop><stop offset="85.55555555555554%" stop-color="#4facf7" stop-opacity="1"></stop></linearGradient></defs><defs><linearGradient id="grad2_2" x1="0%" y1="0%" x2="56.3%" y2="100%"><stop offset="14.444444444444446%" stop-color="#b4d4fc" stop-opacity="1"></stop><stop offset="85.55555555555554%" stop-color="#ffffff" stop-opacity="1"></stop></linearGradient></defs><g transform="translate(1920, 0)"><path d="M0 864C-55 823.1 -110.1 782.2 -177.3 777C-244.6 771.8 -324.2 802.3 -369.2 766.7C-414.3 731.1 -424.7 629.5 -447.7 561.4C-470.6 493.2 -505.9 458.6 -519.9 414.6C-533.9 370.7 -526.5 317.4 -589.2 283.8C-652 250.2 -784.9 236.3 -842.3 192.3C-899.8 148.2 -881.9 74.1 -864 0L0 0Z" fill="#dbe9fd"></path><path d="M0 576C-36.7 548.7 -73.4 521.5 -118.2 518C-163.1 514.5 -216.1 534.9 -246.2 511.1C-276.2 487.4 -283.2 419.7 -298.4 374.2C-313.7 328.8 -337.3 305.7 -346.6 276.4C-355.9 247.1 -351 211.6 -392.8 189.2C-434.6 166.8 -523.2 157.5 -561.6 128.2C-599.9 98.8 -587.9 49.4 -576 0L0 0Z" fill="#88c0f9"></path><path d="M0 288C-18.3 274.4 -36.7 260.7 -59.1 259C-81.5 257.3 -108.1 267.4 -123.1 255.6C-138.1 243.7 -141.6 209.8 -149.2 187.1C-156.9 164.4 -168.6 152.9 -173.3 138.2C-178 123.6 -175.5 105.8 -196.4 94.6C-217.3 83.4 -261.6 78.8 -280.8 64.1C-299.9 49.4 -294 24.7 -288 0L0 0Z" fill="#4facf7"></path></g><g transform="translate(0, 1080)"><path d="M0 -864C72.9 -878.8 145.8 -893.6 192.3 -842.3C238.7 -791.1 258.8 -673.8 301.1 -625.3C343.4 -576.8 407.9 -597.2 470.1 -589.5C532.4 -581.8 592.4 -546.2 612.2 -488.2C632 -430.2 611.5 -349.9 602.7 -290.3C594 -230.6 597 -191.6 642.5 -146.6C688 -101.7 776 -50.9 864 0L0 0Z" fill="#dbe9fd"></path><path d="M0 -576C48.6 -585.9 97.2 -595.7 128.2 -561.6C159.2 -527.4 172.6 -449.2 200.7 -416.8C228.9 -384.5 271.9 -398.1 313.4 -393C354.9 -387.9 394.9 -364.1 408.1 -325.5C421.3 -286.8 407.7 -233.3 401.8 -193.5C396 -153.7 398 -127.7 428.3 -97.8C458.6 -67.8 517.3 -33.9 576 0L0 0Z" fill="#88c0f9"></path><path d="M0 -288C24.3 -292.9 48.6 -297.9 64.1 -280.8C79.6 -263.7 86.3 -224.6 100.4 -208.4C114.5 -192.3 136 -199.1 156.7 -196.5C177.5 -193.9 197.5 -182.1 204.1 -162.7C210.7 -143.4 203.8 -116.6 200.9 -96.8C198 -76.9 199 -63.9 214.2 -48.9C229.3 -33.9 258.7 -17 288 0L0 0Z" fill="#4facf7"></path></g></svg>