<svg id="visual" viewBox="0 0 1300 540" width="1300" height="540" xmlns="http://www.w3.org/2000/svg" xmlns:xlink="http://www.w3.org/1999/xlink" version="1.1"><rect x="0" y="0" width="1300" height="540" fill="#FFFFFF"></rect><defs><linearGradient id="grad1_0" x1="58.5%" y1="100%" x2="100%" y2="0%"><stop offset="1.8518518518518512%" stop-color="#45a6f6" stop-opacity="1"></stop><stop offset="98.14814814814815%" stop-color="#45a6f6" stop-opacity="1"></stop></linearGradient></defs><defs><linearGradient id="grad1_1" x1="58.5%" y1="100%" x2="100%" y2="0%"><stop offset="1.8518518518518512%" stop-color="#45a6f6" stop-opacity="1"></stop><stop offset="98.14814814814815%" stop-color="#ffffff" stop-opacity="1"></stop></linearGradient></defs><defs><linearGradient id="grad2_0" x1="0%" y1="100%" x2="41.5%" y2="0%"><stop offset="1.8518518518518512%" stop-color="#45a6f6" stop-opacity="1"></stop><stop offset="98.14814814814815%" stop-color="#45a6f6" stop-opacity="1"></stop></linearGradient></defs><defs><linearGradient id="grad2_1" x1="0%" y1="100%" x2="41.5%" y2="0%"><stop offset="1.8518518518518512%" stop-color="#ffffff" stop-opacity="1"></stop><stop offset="98.14814814814815%" stop-color="#45a6f6" stop-opacity="1"></stop></linearGradient></defs><g transform="translate(1300, 540)"><path d="M-415 0C-436.3 -51.9 -457.7 -103.8 -444.1 -144.3C-430.6 -184.8 -382.3 -213.8 -353.5 -256.9C-324.8 -299.9 -315.7 -356.9 -283.3 -389.9C-251 -423 -195.4 -432.1 -144.3 -444.1C-93.2 -456.2 -46.6 -471.1 0 -486L0 0Z" fill="#b1d1fb"></path><path d="M-207.5 0C-218.2 -26 -228.8 -51.9 -222.1 -72.2C-215.3 -92.4 -191.1 -106.9 -176.8 -128.4C-162.4 -149.9 -157.8 -178.4 -141.7 -195C-125.5 -211.5 -97.7 -216.1 -72.2 -222.1C-46.6 -228.1 -23.3 -235.5 0 -243L0 0Z" fill="#45a6f6"></path></g><g transform="translate(0, 0)"><path d="M446 0C459.7 56.9 473.4 113.9 440.3 143.1C407.3 172.3 327.5 173.8 302.6 219.8C277.6 265.9 307.5 356.6 285.7 393.2C263.8 429.8 190.3 412.3 134.1 412.8C77.9 413.2 38.9 431.6 0 450L0 0Z" fill="#b1d1fb"></path><path d="M223 0C229.8 28.5 236.7 56.9 220.2 71.5C203.6 86.1 163.8 86.9 151.3 109.9C138.8 133 153.7 178.3 142.8 196.6C131.9 214.9 95.2 206.2 67.1 206.4C38.9 206.6 19.5 215.8 0 225L0 0Z" fill="#45a6f6"></path></g></svg>