<svg id="visual" viewBox="0 0 1000 540" width="1000" height="540" xmlns="http://www.w3.org/2000/svg" xmlns:xlink="http://www.w3.org/1999/xlink" version="1.1"><rect x="0" y="0" width="1000" height="540" fill="#FFFFFF"></rect><defs><linearGradient id="grad1_0" x1="46%" y1="0%" x2="100%" y2="100%"><stop offset="12.962962962962964%" stop-color="#4facf7" stop-opacity="1"></stop><stop offset="87.03703703703704%" stop-color="#4facf7" stop-opacity="1"></stop></linearGradient></defs><defs><linearGradient id="grad1_1" x1="46%" y1="0%" x2="100%" y2="100%"><stop offset="12.962962962962964%" stop-color="#4facf7" stop-opacity="1"></stop><stop offset="87.03703703703704%" stop-color="#b4d4fc" stop-opacity="1"></stop></linearGradient></defs><defs><linearGradient id="grad1_2" x1="46%" y1="0%" x2="100%" y2="100%"><stop offset="12.962962962962964%" stop-color="#ffffff" stop-opacity="1"></stop><stop offset="87.03703703703704%" stop-color="#b4d4fc" stop-opacity="1"></stop></linearGradient></defs><defs><linearGradient id="grad2_0" x1="0%" y1="0%" x2="54%" y2="100%"><stop offset="12.962962962962964%" stop-color="#4facf7" stop-opacity="1"></stop><stop offset="87.03703703703704%" stop-color="#4facf7" stop-opacity="1"></stop></linearGradient></defs><defs><linearGradient id="grad2_1" x1="0%" y1="0%" x2="54%" y2="100%"><stop offset="12.962962962962964%" stop-color="#b4d4fc" stop-opacity="1"></stop><stop offset="87.03703703703704%" stop-color="#4facf7" stop-opacity="1"></stop></linearGradient></defs><defs><linearGradient id="grad2_2" x1="0%" y1="0%" x2="54%" y2="100%"><stop offset="12.962962962962964%" stop-color="#b4d4fc" stop-opacity="1"></stop><stop offset="87.03703703703704%" stop-color="#ffffff" stop-opacity="1"></stop></linearGradient></defs><g transform="translate(1000, 0)"><path d="M0 486C-50.1 480.7 -100.1 475.5 -150.2 462.2C-200.2 448.9 -250.3 427.7 -282.1 388.3C-314 349 -327.6 291.6 -336.6 244.5C-345.5 197.4 -349.6 160.5 -373.8 121.4C-397.9 82.4 -441.9 41.2 -486 0L0 0Z" fill="#dbe9fd"></path><path d="M0 324C-33.4 320.5 -66.8 317 -100.1 308.1C-133.5 299.3 -166.9 285.1 -188.1 258.9C-209.3 232.7 -218.4 194.4 -224.4 163C-230.3 131.6 -233.1 107 -249.2 81C-265.3 54.9 -294.6 27.5 -324 0L0 0Z" fill="#88c0f9"></path><path d="M0 162C-16.7 160.2 -33.4 158.5 -50.1 154.1C-66.7 149.6 -83.4 142.6 -94 129.4C-104.7 116.3 -109.2 97.2 -112.2 81.5C-115.2 65.8 -116.5 53.5 -124.6 40.5C-132.6 27.5 -147.3 13.7 -162 0L0 0Z" fill="#4facf7"></path></g><g transform="translate(0, 540)"><path d="M0 -486C53.6 -475.9 107.1 -465.8 140.9 -433.7C174.7 -401.6 188.8 -347.4 236.9 -326C285 -304.7 367 -316 393.2 -285.7C419.3 -255.3 389.5 -183.1 395.6 -128.6C401.8 -74 443.9 -37 486 0L0 0Z" fill="#dbe9fd"></path><path d="M0 -324C35.7 -317.3 71.4 -310.5 93.9 -289.1C116.5 -267.7 125.9 -231.6 157.9 -217.4C190 -203.1 244.7 -210.7 262.1 -190.4C279.5 -170.2 259.7 -122.1 263.8 -85.7C267.9 -49.3 295.9 -24.7 324 0L0 0Z" fill="#88c0f9"></path><path d="M0 -162C17.9 -158.6 35.7 -155.3 47 -144.6C58.2 -133.9 62.9 -115.8 79 -108.7C95 -101.6 122.3 -105.3 131.1 -95.2C139.8 -85.1 129.8 -61 131.9 -42.9C133.9 -24.7 148 -12.3 162 0L0 0Z" fill="#4facf7"></path></g></svg>