<svg id="visual" viewBox="0 0 1300 540" width="1300" height="540" xmlns="http://www.w3.org/2000/svg" xmlns:xlink="http://www.w3.org/1999/xlink" version="1.1"><rect x="0" y="0" width="1300" height="540" fill="#FFFFFF"></rect><defs><linearGradient id="grad1_0" x1="58.5%" y1="0%" x2="100%" y2="100%"><stop offset="1.8518518518518512%" stop-color="#45a6f6" stop-opacity="1"></stop><stop offset="98.14814814814815%" stop-color="#45a6f6" stop-opacity="1"></stop></linearGradient></defs><defs><linearGradient id="grad1_1" x1="58.5%" y1="0%" x2="100%" y2="100%"><stop offset="1.8518518518518512%" stop-color="#45a6f6" stop-opacity="1"></stop><stop offset="98.14814814814815%" stop-color="#ffffff" stop-opacity="1"></stop></linearGradient></defs><defs><linearGradient id="grad2_0" x1="0%" y1="0%" x2="41.5%" y2="100%"><stop offset="1.8518518518518512%" stop-color="#45a6f6" stop-opacity="1"></stop><stop offset="98.14814814814815%" stop-color="#45a6f6" stop-opacity="1"></stop></linearGradient></defs><defs><linearGradient id="grad2_1" x1="0%" y1="0%" x2="41.5%" y2="100%"><stop offset="1.8518518518518512%" stop-color="#ffffff" stop-opacity="1"></stop><stop offset="98.14814814814815%" stop-color="#45a6f6" stop-opacity="1"></stop></linearGradient></defs><g transform="translate(1300, 0)"><path d="M0 433C-65.6 443.9 -131.3 454.8 -175.7 424.1C-220 393.3 -243.1 320.9 -270.1 270.1C-297.1 219.4 -327.9 190.3 -359.4 148.9C-390.8 107.5 -422.9 53.7 -455 0L0 0Z" fill="#b1d1fb"></path><path d="M0 216.5C-32.8 222 -65.6 227.4 -87.8 212C-110 196.7 -121.6 160.4 -135.1 135.1C-148.5 109.7 -164 95.1 -179.7 74.4C-195.4 53.7 -211.5 26.9 -227.5 0L0 0Z" fill="#45a6f6"></path></g><g transform="translate(0, 540)"><path d="M0 -459C65.3 -458.6 130.6 -458.2 174.9 -422.2C219.2 -386.2 242.4 -314.7 262.3 -262.3C282.3 -210 299 -176.8 328.9 -136.2C358.8 -95.7 401.9 -47.9 445 0L0 0Z" fill="#b1d1fb"></path><path d="M0 -229.5C32.7 -229.3 65.3 -229.1 87.4 -211.1C109.6 -193.1 121.2 -157.4 131.2 -131.2C141.1 -105 149.5 -88.4 164.5 -68.1C179.4 -47.9 201 -23.9 222.5 0L0 0Z" fill="#45a6f6"></path></g></svg>