<svg id="visual" viewBox="0 0 960 540" width="960" height="540" xmlns="http://www.w3.org/2000/svg" xmlns:xlink="http://www.w3.org/1999/xlink" version="1.1"><rect x="0" y="0" width="960" height="540" fill="#FFFFFF"></rect><defs><linearGradient id="grad1_0" x1="43.8%" y1="0%" x2="100%" y2="100%"><stop offset="14.444444444444446%" stop-color="#4facf7" stop-opacity="1"></stop><stop offset="85.55555555555554%" stop-color="#4facf7" stop-opacity="1"></stop></linearGradient></defs><defs><linearGradient id="grad1_1" x1="43.8%" y1="0%" x2="100%" y2="100%"><stop offset="14.444444444444446%" stop-color="#4facf7" stop-opacity="1"></stop><stop offset="85.55555555555554%" stop-color="#b4d4fc" stop-opacity="1"></stop></linearGradient></defs><defs><linearGradient id="grad1_2" x1="43.8%" y1="0%" x2="100%" y2="100%"><stop offset="14.444444444444446%" stop-color="#ffffff" stop-opacity="1"></stop><stop offset="85.55555555555554%" stop-color="#b4d4fc" stop-opacity="1"></stop></linearGradient></defs><defs><linearGradient id="grad2_0" x1="0%" y1="0%" x2="56.3%" y2="100%"><stop offset="14.444444444444446%" stop-color="#4facf7" stop-opacity="1"></stop><stop offset="85.55555555555554%" stop-color="#4facf7" stop-opacity="1"></stop></linearGradient></defs><defs><linearGradient id="grad2_1" x1="0%" y1="0%" x2="56.3%" y2="100%"><stop offset="14.444444444444446%" stop-color="#b4d4fc" stop-opacity="1"></stop><stop offset="85.55555555555554%" stop-color="#4facf7" stop-opacity="1"></stop></linearGradient></defs><defs><linearGradient id="grad2_2" x1="0%" y1="0%" x2="56.3%" y2="100%"><stop offset="14.444444444444446%" stop-color="#b4d4fc" stop-opacity="1"></stop><stop offset="85.55555555555554%" stop-color="#ffffff" stop-opacity="1"></stop></linearGradient></defs><g transform="translate(960, 0)"><path d="M0 378C-45.3 382.6 -90.6 387.1 -116.8 359.5C-143 331.9 -150.2 272 -177.5 244.3C-204.8 216.6 -252.3 221.1 -279.1 202.8C-306 184.4 -312.2 143.3 -325.3 105.7C-338.3 68.1 -358.2 34 -378 0L0 0Z" fill="#dbe9fd"></path><path d="M0 252C-30.2 255 -60.4 258.1 -77.9 239.7C-95.4 221.2 -100.1 181.3 -118.3 162.9C-136.5 144.4 -168.2 147.4 -186.1 135.2C-204 123 -208.1 95.5 -216.8 70.5C-225.5 45.4 -238.8 22.7 -252 0L0 0Z" fill="#88c0f9"></path><path d="M0 126C-15.1 127.5 -30.2 129 -38.9 119.8C-47.7 110.6 -50.1 90.7 -59.2 81.4C-68.3 72.2 -84.1 73.7 -93 67.6C-102 61.5 -104.1 47.8 -108.4 35.2C-112.8 22.7 -119.4 11.3 -126 0L0 0Z" fill="#4facf7"></path></g><g transform="translate(0, 540)"><path d="M0 -378C43 -380.4 86 -382.9 116.8 -359.5C147.6 -336.1 166.1 -287 184 -253.2C201.8 -219.5 219 -201.2 251.6 -182.8C284.2 -164.4 332.1 -146 355.7 -115.6C379.3 -85.1 378.7 -42.5 378 0L0 0Z" fill="#dbe9fd"></path><path d="M0 -252C28.7 -253.6 57.4 -255.2 77.9 -239.7C98.4 -224.1 110.7 -191.3 122.7 -168.8C134.6 -146.3 146 -134.1 167.7 -121.9C189.4 -109.6 221.4 -97.4 237.1 -77C252.9 -56.7 252.4 -28.4 252 0L0 0Z" fill="#88c0f9"></path><path d="M0 -126C14.3 -126.8 28.7 -127.6 38.9 -119.8C49.2 -112 55.4 -95.7 61.3 -84.4C67.3 -73.2 73 -67.1 83.9 -60.9C94.7 -54.8 110.7 -48.7 118.6 -38.5C126.4 -28.4 126.2 -14.2 126 0L0 0Z" fill="#4facf7"></path></g></svg>