<svg id="visual" viewBox="0 0 1300 540" width="1300" height="540" xmlns="http://www.w3.org/2000/svg" xmlns:xlink="http://www.w3.org/1999/xlink" version="1.1"><rect x="0" y="0" width="1300" height="540" fill="#FFFFFF"></rect><defs><linearGradient id="grad1_0" x1="58.5%" y1="0%" x2="100%" y2="100%"><stop offset="1.8518518518518512%" stop-color="#4facf7" stop-opacity="1"></stop><stop offset="98.14814814814815%" stop-color="#4facf7" stop-opacity="1"></stop></linearGradient></defs><defs><linearGradient id="grad1_1" x1="58.5%" y1="0%" x2="100%" y2="100%"><stop offset="1.8518518518518512%" stop-color="#4facf7" stop-opacity="1"></stop><stop offset="98.14814814814815%" stop-color="#b4d4fc" stop-opacity="1"></stop></linearGradient></defs><defs><linearGradient id="grad1_2" x1="58.5%" y1="0%" x2="100%" y2="100%"><stop offset="1.8518518518518512%" stop-color="#ffffff" stop-opacity="1"></stop><stop offset="98.14814814814815%" stop-color="#b4d4fc" stop-opacity="1"></stop></linearGradient></defs><defs><linearGradient id="grad2_0" x1="0%" y1="0%" x2="41.5%" y2="100%"><stop offset="1.8518518518518512%" stop-color="#4facf7" stop-opacity="1"></stop><stop offset="98.14814814814815%" stop-color="#4facf7" stop-opacity="1"></stop></linearGradient></defs><defs><linearGradient id="grad2_1" x1="0%" y1="0%" x2="41.5%" y2="100%"><stop offset="1.8518518518518512%" stop-color="#b4d4fc" stop-opacity="1"></stop><stop offset="98.14814814814815%" stop-color="#4facf7" stop-opacity="1"></stop></linearGradient></defs><defs><linearGradient id="grad2_2" x1="0%" y1="0%" x2="41.5%" y2="100%"><stop offset="1.8518518518518512%" stop-color="#b4d4fc" stop-opacity="1"></stop><stop offset="98.14814814814815%" stop-color="#ffffff" stop-opacity="1"></stop></linearGradient></defs><g transform="translate(1300, 0)"><path d="M0 486C-40.3 448 -80.6 410 -129.2 397.5C-177.7 385.1 -234.6 398.1 -276.8 381C-319.1 364 -346.7 316.7 -377.8 274.5C-408.9 232.3 -443.6 195.1 -462.2 150.2C-480.8 105.3 -483.4 52.6 -486 0L0 0Z" fill="#dbe9fd"></path><path d="M0 324C-26.9 298.7 -53.7 273.3 -86.1 265C-118.5 256.7 -156.4 265.4 -184.6 254C-212.7 242.6 -231.1 211.1 -251.9 183C-272.6 154.9 -295.7 130.1 -308.1 100.1C-320.6 70.2 -322.3 35.1 -324 0L0 0Z" fill="#88c0f9"></path><path d="M0 162C-13.4 149.3 -26.9 136.7 -43.1 132.5C-59.2 128.4 -78.2 132.7 -92.3 127C-106.4 121.3 -115.6 105.6 -125.9 91.5C-136.3 77.4 -147.9 65 -154.1 50.1C-160.3 35.1 -161.1 17.5 -162 0L0 0Z" fill="#4facf7"></path></g><g transform="translate(0, 540)"><path d="M0 -486C42.9 -457 85.9 -428 134.1 -412.8C182.3 -397.6 235.9 -396.2 268 -368.9C300.2 -341.6 311 -288.5 344.6 -250.4C378.3 -212.3 434.8 -189.4 462.2 -150.2C489.6 -111 487.8 -55.5 486 0L0 0Z" fill="#dbe9fd"></path><path d="M0 -324C28.6 -304.7 57.3 -285.3 89.4 -275.2C121.6 -265 157.2 -264.1 178.7 -245.9C200.1 -227.8 207.3 -192.3 229.8 -166.9C252.2 -141.6 289.9 -126.3 308.1 -100.1C326.4 -74 325.2 -37 324 0L0 0Z" fill="#88c0f9"></path><path d="M0 -162C14.3 -152.3 28.6 -142.7 44.7 -137.6C60.8 -132.5 78.6 -132.1 89.3 -123C100.1 -113.9 103.7 -96.2 114.9 -83.5C126.1 -70.8 144.9 -63.1 154.1 -50.1C163.2 -37 162.6 -18.5 162 0L0 0Z" fill="#4facf7"></path></g></svg>